<svg xmlns="http://www.w3.org/2000/svg" xml:space="preserve" viewBox="0 0 394.182 108.822"><g style="font-weight:700;font-size:32px;-inkscape-font-specification:&quot;sans-serif Bold&quot;;text-align:center;white-space:pre;fill:#cf0;stroke:#393938;stroke-width:.291024"><path stroke="none" d="M57.167 11.994h6.016v18.781h10.562v4.547H57.167Zm37.61 14.531v1.594H81.697q.203 1.969 1.422 2.953 1.219.985 3.406.985 1.766 0 3.61-.516 1.86-.531 3.812-1.594v4.313q-1.984.75-3.969 1.125-1.984.39-3.968.39-4.75 0-7.39-2.406-2.626-2.422-2.626-6.781 0-4.281 2.578-6.734 2.594-2.454 7.125-2.454 4.125 0 6.594 2.485 2.484 2.484 2.484 6.64zm-5.75-1.859q0-1.594-.938-2.562-.922-.985-2.422-.985-1.625 0-2.64.922-1.016.906-1.266 2.625zm17.827 2.781q-1.75 0-2.64.594-.875.594-.875 1.75 0 1.063.703 1.672.719.594 1.984.594 1.578 0 2.657-1.125 1.078-1.141 1.078-2.844v-.64zm8.547-2.11v9.985h-5.64V32.73q-1.125 1.593-2.532 2.328-1.406.718-3.421.718-2.72 0-4.422-1.578-1.688-1.593-1.688-4.125 0-3.078 2.11-4.515 2.125-1.438 6.656-1.438h3.297v-.437q0-1.328-1.047-1.938-1.047-.625-3.266-.625-1.797 0-3.344.36-1.546.359-2.875 1.078V18.29q1.797-.437 3.61-.656 1.812-.235 3.625-.235 4.734 0 6.828 1.875 2.11 1.86 2.11 6.063zm18.203-2.75q-.734-.343-1.468-.5-.719-.171-1.453-.171-2.157 0-3.329 1.39-1.156 1.376-1.156 3.954v8.062h-5.594v-17.5h5.594v2.875q1.078-1.718 2.469-2.5 1.406-.797 3.36-.797.28 0 .609.032.328.015.953.093zm20.375 2.079v10.656h-5.625V27.166q0-2.266-.109-3.125-.094-.86-.344-1.266-.328-.546-.89-.843-.563-.313-1.282-.313-1.75 0-2.75 1.36-1 1.343-1 3.734v8.61h-5.593v-17.5h5.593v2.562q1.266-1.531 2.688-2.25 1.422-.735 3.14-.735 3.032 0 4.594 1.86 1.578 1.86 1.578 5.406zm5.188-6.844h5.594v17.5h-5.594zm0-6.812h5.594v4.562h-5.594zm28.562 13.656v10.656h-5.625V27.166q0-2.266-.109-3.125-.094-.86-.344-1.266-.328-.546-.89-.843-.563-.313-1.282-.313-1.75 0-2.75 1.36-1 1.343-1 3.734v8.61h-5.593v-17.5h5.593v2.562q1.266-1.531 2.688-2.25 1.422-.735 3.14-.735 3.032 0 4.594 1.86 1.578 1.86 1.578 5.406zm17.094 7.688q-1.156 1.53-2.547 2.25-1.39.718-3.218.718-3.204 0-5.297-2.515-2.094-2.532-2.094-6.438 0-3.922 2.094-6.422 2.093-2.515 5.297-2.515 1.828 0 3.218.718 1.391.72 2.547 2.266v-2.594h5.625v15.735q0 4.218-2.672 6.437-2.656 2.235-7.718 2.235-1.641 0-3.172-.25-1.532-.25-3.078-.766v-4.36q1.468.844 2.875 1.25 1.406.422 2.828.422 2.75 0 4.031-1.203 1.281-1.203 1.281-3.765zm-3.687-10.891q-1.735 0-2.703 1.281-.97 1.281-.97 3.625 0 2.406.938 3.656.938 1.235 2.735 1.235 1.75 0 2.718-1.281.97-1.282.97-3.61 0-2.344-.97-3.625-.968-1.281-2.718-1.281zm15.265 7.812h5.625v4.766l-3.859 5.828h-3.328l1.562-5.828zm37.125 1.797h-9.406l-1.484 4.25h-6.047l8.64-23.328h7.172l8.641 23.328h-6.047zm-7.906-4.328h6.39l-3.187-9.281zm30.172-6.36V11.01h5.625v24.312h-5.625v-2.531q-1.156 1.547-2.547 2.266-1.39.718-3.219.718-3.234 0-5.312-2.562-2.078-2.578-2.078-6.625 0-4.047 2.078-6.61 2.078-2.578 5.312-2.578 1.813 0 3.203.735 1.407.719 2.563 2.25zm-3.688 11.329q1.797 0 2.735-1.313.953-1.312.953-3.812t-.953-3.813q-.938-1.312-2.735-1.312-1.78 0-2.734 1.312-.937 1.313-.937 3.813t.937 3.812q.953 1.313 2.734 1.313zm22.532-4.266q-1.75 0-2.64.594-.876.594-.876 1.75 0 1.063.703 1.672.719.594 1.985.594 1.578 0 2.656-1.125 1.078-1.141 1.078-2.844v-.64zm8.547-2.11v9.985h-5.641V32.73q-1.125 1.593-2.531 2.328-1.407.718-3.422.718-2.719 0-4.422-1.578-1.688-1.593-1.688-4.125 0-3.078 2.11-4.515 2.125-1.438 6.656-1.438h3.297v-.437q0-1.328-1.047-1.938-1.047-.625-3.266-.625-1.796 0-3.343.36-1.547.359-2.875 1.078V18.29q1.797-.437 3.61-.656 1.812-.235 3.624-.235 4.734 0 6.828 1.875 2.11 1.86 2.11 6.063zm10.796 7.454v9.188h-5.593V17.822h5.593v2.563q1.157-1.531 2.563-2.25 1.406-.735 3.234-.735 3.235 0 5.313 2.579 2.078 2.562 2.078 6.609 0 4.047-2.078 6.625-2.078 2.562-5.313 2.562-1.828 0-3.234-.718-1.406-.735-2.563-2.266zm3.72-11.328q-1.798 0-2.766 1.328-.954 1.313-.954 3.797t.954 3.812q.968 1.313 2.765 1.313 1.797 0 2.735-1.313.953-1.312.953-3.812t-.953-3.813q-.938-1.312-2.735-1.312zm19.702-8.61v4.97h5.766v4h-5.766v7.421q0 1.219.485 1.656.484.422 1.922.422h2.875v4h-4.797q-3.313 0-4.703-1.375-1.375-1.39-1.375-4.703v-7.422h-2.782v-4h2.782v-4.968zm9.188 4.97h5.594v17.5h-5.594zm0-6.813h5.594v4.562h-5.594zm8.765 6.812h5.594l4.36 12.094 4.343-12.094h5.61l-6.89 17.5h-6.142zm40.532 8.703v1.594h-13.078q.203 1.969 1.421 2.953 1.22.985 3.407.985 1.765 0 3.61-.516 1.858-.531 3.812-1.594v4.313q-1.985.75-3.97 1.125-1.984.39-3.968.39-4.75 0-7.39-2.406-2.626-2.422-2.626-6.781 0-4.281 2.579-6.734 2.593-2.454 7.125-2.454 4.125 0 6.593 2.485 2.485 2.484 2.485 6.64zm-5.75-1.859q0-1.594-.938-2.562-.922-.985-2.422-.985-1.625 0-2.64.922-1.016.906-1.266 2.625z" style="color:#000;-inkscape-font-specification:&quot;sans-serif Bold&quot;;display:inline;fill:#002557;stroke:none;-inkscape-stroke:none" transform="translate(-29.13 -10.864)"/></g><g stroke="none" style="font-weight:700;font-size:32px;-inkscape-font-specification:&quot;sans-serif Bold&quot;;text-align:center;white-space:pre;fill:#cf0;stroke:#393938;stroke-width:.291024"><path d="M46.151 52.729v4.937q-1.922-.86-3.75-1.297-1.828-.437-3.453-.437-2.156 0-3.187.593-1.032.594-1.032 1.844 0 .938.688 1.469.703.516 2.531.89l2.563.516q3.89.781 5.531 2.375 1.64 1.594 1.64 4.531 0 3.86-2.296 5.75-2.282 1.875-6.985 1.875-2.218 0-4.453-.421-2.234-.422-4.469-1.25v-5.079q2.235 1.188 4.313 1.797 2.094.594 4.031.594 1.969 0 3.016-.656t1.047-1.875q0-1.094-.719-1.688-.703-.593-2.828-1.062l-2.328-.516q-3.5-.75-5.125-2.39-1.61-1.641-1.61-4.422 0-3.485 2.25-5.36 2.25-1.875 6.47-1.875 1.921 0 3.952.297 2.031.281 4.203.86zm4.266 5.093h5.594l4.703 11.875 4-11.875h5.594l-7.36 19.157q-1.11 2.921-2.594 4.078-1.468 1.172-3.89 1.172h-3.235v-3.672h1.75q1.422 0 2.063-.453.656-.454 1.016-1.625l.156-.485zm36.828.547v4.25q-1.797-.75-3.469-1.125t-3.156-.375q-1.594 0-2.375.406-.766.391-.766 1.22 0 .671.579 1.03.593.36 2.109.532l.984.14q4.297.547 5.782 1.797 1.484 1.25 1.484 3.922 0 2.797-2.063 4.203-2.062 1.406-6.156 1.406-1.734 0-3.594-.28-1.843-.266-3.796-.813v-4.25q1.671.812 3.421 1.218 1.766.407 3.579.407 1.64 0 2.468-.453.828-.454.828-1.344 0-.75-.578-1.11-.562-.375-2.265-.578l-.985-.125q-3.734-.468-5.234-1.734t-1.5-3.844q0-2.781 1.906-4.125 1.906-1.344 5.844-1.344 1.547 0 3.25.235 1.703.234 3.703.734zm11.484-5.515v4.968h5.766v4H98.73v7.422q0 1.219.485 1.656.484.422 1.922.422h2.875v4h-4.797q-3.313 0-4.703-1.375-1.375-1.39-1.375-4.703v-7.422h-2.782v-4h2.782v-4.968zm26.657 13.671v1.594h-13.078q.203 1.969 1.421 2.953 1.22.985 3.407.985 1.765 0 3.61-.516 1.858-.531 3.812-1.594v4.313q-1.985.75-3.97 1.125-1.984.39-3.968.39-4.75 0-7.39-2.406-2.626-2.422-2.626-6.781 0-4.281 2.579-6.734 2.593-2.454 7.125-2.454 4.125 0 6.593 2.485 2.485 2.484 2.485 6.64zm-5.75-1.859q0-1.594-.938-2.562-.922-.985-2.422-.985-1.625 0-2.64.922-1.016.906-1.266 2.625zm26.203-3.937q1.062-1.625 2.515-2.47 1.47-.859 3.22-.859 3.015 0 4.593 1.86 1.578 1.86 1.578 5.406v10.656h-5.625v-9.125q.016-.203.016-.422.015-.218.015-.625 0-1.859-.547-2.687-.546-.844-1.765-.844-1.594 0-2.469 1.313-.86 1.312-.89 3.797v8.593h-5.626v-9.125q0-2.906-.5-3.734-.5-.844-1.78-.844-1.61 0-2.485 1.328-.875 1.313-.875 3.766v8.61h-5.625v-17.5h5.625v2.562q1.031-1.485 2.36-2.235 1.343-.75 2.952-.75 1.813 0 3.203.875 1.391.875 2.11 2.454zm30.797-2.36v4.25q-1.797-.75-3.469-1.125t-3.156-.375q-1.594 0-2.375.406-.766.391-.766 1.22 0 .671.578 1.03.594.36 2.11.532l.984.14q4.297.547 5.781 1.797 1.485 1.25 1.485 3.922 0 2.797-2.063 4.203-2.062 1.406-6.156 1.406-1.735 0-3.594-.28-1.844-.266-3.797-.813v-4.25q1.672.812 3.422 1.218 1.766.407 3.578.407 1.64 0 2.469-.453.828-.454.828-1.344 0-.75-.578-1.11-.563-.375-2.266-.578l-.984-.125q-3.734-.468-5.234-1.734t-1.5-3.844q0-2.781 1.906-4.125 1.906-1.344 5.844-1.344 1.546 0 3.25.235 1.703.234 3.703.734zm24.36 9.078q-1.75 0-2.642.594-.875.594-.875 1.75 0 1.063.704 1.672.718.594 1.984.594 1.578 0 2.656-1.125 1.078-1.141 1.078-2.844v-.64zm8.546-2.11v9.985h-5.64V72.73q-1.126 1.593-2.532 2.328-1.406.718-3.422.718-2.719 0-4.422-1.578-1.687-1.593-1.687-4.125 0-3.078 2.11-4.515 2.124-1.438 6.655-1.438h3.297v-.437q0-1.328-1.047-1.938-1.046-.625-3.265-.625-1.797 0-3.344.36-1.547.359-2.875 1.078V58.29q1.797-.437 3.61-.656 1.812-.235 3.624-.235 4.735 0 6.829 1.875 2.109 1.86 2.109 6.063zm22.797-.671v10.656h-5.625V67.166q0-2.266-.11-3.125-.093-.86-.343-1.266-.328-.546-.89-.843-.563-.313-1.282-.313-1.75 0-2.75 1.36-1 1.343-1 3.734v8.61h-5.594v-17.5h5.594v2.562q1.265-1.531 2.687-2.25 1.422-.735 3.141-.735 3.031 0 4.594 1.86 1.578 1.86 1.578 5.406zm17.094-4.281V51.01h5.625v24.312h-5.625v-2.531q-1.157 1.547-2.547 2.266-1.39.718-3.219.718-3.234 0-5.313-2.562-2.078-2.578-2.078-6.625 0-4.047 2.078-6.61 2.079-2.578 5.313-2.578 1.812 0 3.203.735 1.406.719 2.563 2.25zm-3.688 11.328q1.797 0 2.734-1.313.954-1.312.954-3.812t-.954-3.813q-.937-1.312-2.734-1.312-1.781 0-2.734 1.312-.938 1.313-.938 3.813t.938 3.812q.953 1.313 2.734 1.313zm34.625-9.375q1.89 0 2.703-.703.828-.703.828-2.313 0-1.593-.828-2.281-.812-.687-2.703-.687h-2.531v5.984zm-2.531 4.156v8.828h-6.016V51.994h9.188q4.61 0 6.75 1.547 2.156 1.547 2.156 4.89 0 2.313-1.125 3.798-1.11 1.484-3.36 2.187 1.235.281 2.204 1.281.984.985 1.984 3l3.266 6.625h-6.407l-2.843-5.797q-.86-1.75-1.75-2.39-.875-.64-2.344-.64zm26.703-5.094q-1.86 0-2.844 1.344-.969 1.328-.969 3.844t.97 3.86q.984 1.327 2.843 1.327 1.828 0 2.797-1.328.969-1.343.969-3.86 0-2.515-.97-3.843-.968-1.344-2.796-1.344zm0-4q4.516 0 7.047 2.438 2.547 2.437 2.547 6.75 0 4.312-2.547 6.75-2.531 2.437-7.047 2.437-4.531 0-7.094-2.437-2.547-2.438-2.547-6.75 0-4.313 2.547-6.75 2.563-2.438 7.094-2.438zm22.969 14.313q1.797 0 2.734-1.313.953-1.312.953-3.812t-.953-3.813q-.937-1.312-2.734-1.312t-2.766 1.328q-.953 1.313-.953 3.797t.953 3.812q.969 1.313 2.766 1.313zm-3.719-11.328q1.156-1.531 2.562-2.25 1.407-.735 3.235-.735 3.234 0 5.312 2.579 2.078 2.562 2.078 6.609 0 4.047-2.078 6.625-2.078 2.562-5.312 2.562-1.828 0-3.235-.718-1.406-.735-2.562-2.266v2.531h-5.594V51.01h5.594zm25.64 1.015q-1.859 0-2.843 1.344-.969 1.328-.969 3.844t.969 3.86q.984 1.327 2.844 1.327 1.828 0 2.796-1.328.97-1.343.97-3.86 0-2.515-.97-3.843-.968-1.344-2.796-1.344zm0-4q4.516 0 7.047 2.438 2.547 2.437 2.547 6.75 0 4.312-2.547 6.75-2.53 2.437-7.046 2.437-4.532 0-7.094-2.437-2.547-2.438-2.547-6.75 0-4.313 2.547-6.75 2.562-2.438 7.094-2.438zm19.766-4.546v4.968h5.766v4h-5.766v7.422q0 1.219.485 1.656.484.422 1.921.422h2.875v4h-4.796q-3.313 0-4.704-1.375-1.375-1.39-1.375-4.703v-7.422h-2.78v-4h2.78v-4.968zm9.188 4.968h5.593v17.5h-5.593zm0-6.812h5.593v4.562h-5.593zm25.11 7.36v4.562q-1.142-.782-2.298-1.157-1.14-.375-2.375-.375-2.344 0-3.656 1.375-1.297 1.36-1.297 3.813 0 2.453 1.297 3.828 1.312 1.36 3.656 1.36 1.313 0 2.485-.391 1.187-.39 2.187-1.156v4.578q-1.312.484-2.672.718-1.344.25-2.703.25-4.734 0-7.406-2.421-2.672-2.438-2.672-6.766 0-4.328 2.672-6.75 2.672-2.438 7.406-2.438 1.375 0 2.703.25 1.344.235 2.672.72zm18.5 0v4.25q-1.798-.75-3.47-1.126-1.672-.375-3.156-.375-1.594 0-2.375.406-.766.391-.766 1.22 0 .671.579 1.03.593.36 2.109.532l.984.14q4.297.547 5.782 1.797 1.484 1.25 1.484 3.922 0 2.797-2.063 4.203-2.062 1.406-6.156 1.406-1.734 0-3.594-.28-1.843-.266-3.796-.813v-4.25q1.671.812 3.421 1.218 1.766.407 3.579.407 1.64 0 2.468-.453.828-.454.828-1.344 0-.75-.578-1.11-.562-.375-2.265-.578l-.985-.125q-3.734-.468-5.234-1.734t-1.5-3.844q0-2.781 1.906-4.125 1.906-1.344 5.844-1.344 1.547 0 3.25.235 1.703.234 3.703.734z" style="color:#000;-inkscape-font-specification:&quot;sans-serif Bold&quot;;fill:#002557;stroke:none;-inkscape-stroke:none" transform="translate(-29.13 -10.864)"/><path d="M249.287 50.863v9.205c-.719-.882-1.486-1.62-2.35-2.062h-.002c-.95-.501-2.042-.752-3.269-.752-2.194 0-4.015.886-5.424 2.633-1.409 1.737-2.111 3.978-2.111 6.7 0 2.724.7 4.97 2.11 6.718h.001c1.409 1.737 3.23 2.617 5.424 2.617 1.238 0 2.337-.245 3.287-.736.855-.442 1.616-1.185 2.334-2.075v2.358h5.916V50.863Zm68.766 0V75.47h5.884v-2.36c.72.884 1.486 1.625 2.35 2.077h.002c.96.49 2.063.736 3.3.736 2.196 0 4.016-.88 5.425-2.617h.002c1.408-1.748 2.11-3.994 2.11-6.717 0-2.723-.703-4.964-2.112-6.701-1.409-1.747-3.23-2.633-5.424-2.633-1.238 0-2.342.25-3.303.752-.864.442-1.63 1.18-2.35 2.062v-9.205zm60.187 0v4.856h5.885v-4.856Zm-128.662.293h5.334v24.02h-5.334v-2.822l-.262.35c-.76 1.017-1.594 1.757-2.498 2.224-.904.467-1.952.7-3.152.7-2.117 0-3.835-.828-5.197-2.507-1.362-1.69-2.047-3.86-2.047-6.533 0-2.673.683-4.838 2.045-6.518h.002c1.362-1.69 3.08-2.523 5.197-2.523 1.189 0 2.233.24 3.137.717h.002c.914.467 1.751 1.202 2.512 2.209l.261.345v-.433zm68.766 0h5.302v9.662l.262-.345c.76-1.007 1.597-1.742 2.512-2.21h.002c.914-.477 1.969-.716 3.168-.716 2.117 0 3.835.833 5.197 2.523h.002c1.362 1.68 2.045 3.845 2.045 6.518 0 2.673-.685 4.843-2.047 6.533-1.362 1.679-3.08 2.508-5.197 2.508-1.199 0-2.254-.234-3.168-.701h-.002c-.915-.478-1.752-1.218-2.512-2.225l-.261-.346v2.819h-5.303zm60.187 0h5.303v4.27h-5.303zm-340.537.27c-2.834 0-5.026.631-6.56 1.91-1.534 1.278-2.303 3.116-2.303 5.47 0 1.883.549 3.401 1.65 4.524h.002c1.112 1.123 2.847 1.928 5.196 2.432l2.328.515c1.407.31 2.337.67 2.765 1.032h.002c.446.367.666.878.666 1.576 0 .77-.315 1.336-.978 1.752-.663.415-1.643.633-2.94.633-1.276 0-2.605-.196-3.99-.588v.002c-1.374-.403-2.803-1-4.285-1.787l-.213-.114v5.422l.096.035c1.497.555 2.994.973 4.492 1.256 1.498.283 2.99.426 4.478.426 3.155 0 5.52-.627 7.079-1.908 1.568-1.292 2.35-3.262 2.35-5.864 0-1.985-.56-3.54-1.686-4.634-1.127-1.095-2.995-1.89-5.604-2.414l-2.562-.516c-1.209-.248-2.037-.546-2.471-.863l-.002-.002c-.424-.329-.629-.763-.629-1.352 0-.793.31-1.343.959-1.717.65-.374 1.69-.574 3.113-.574 1.07 0 2.21.142 3.42.432 1.21.29 2.45.72 3.725 1.289l.205.092v-5.274l-.108-.03a35.196 35.196 0 0 0-4.22-.862 27.48 27.48 0 0 0-3.975-.3Zm0 .293c1.274 0 2.586.098 3.934.295a34.9 34.9 0 0 1 4.078.834v4.615c-1.216-.53-2.409-.956-3.57-1.234-1.229-.294-2.392-.444-3.489-.444-1.45 0-2.534.196-3.26.613-.725.418-1.103 1.098-1.103 1.971 0 .66.253 1.205.744 1.584l.002.002c.504.37 1.362.664 2.59.916l2.562.516c2.58.518 4.398 1.305 5.46 2.336 1.061 1.031 1.595 2.496 1.595 4.427 0 2.544-.75 4.408-2.244 5.637-1.483 1.219-3.776 1.842-6.893 1.842-1.47 0-2.944-.138-4.425-.418a27.42 27.42 0 0 1-4.35-1.217v-4.752c1.419.739 2.799 1.33 4.127 1.719v.002c1.407.399 2.764.6 4.07.6 1.329 0 2.361-.22 3.094-.68.732-.46 1.115-1.144 1.115-1.998 0-.761-.258-1.375-.771-1.799-.51-.43-1.464-.78-2.889-1.094l-2.33-.515c-2.316-.497-3.996-1.286-5.05-2.35-1.045-1.064-1.57-2.494-1.57-4.32 0-2.292.732-4.027 2.198-5.248 1.466-1.222 3.584-1.84 6.375-1.84zm233.684.129v23.62h6.306v-8.827h1.557c.958 0 1.706.207 2.258.611h.002c.56.403 1.138 1.183 1.705 2.338l2.883 5.879h6.73l-3.369-6.836c-.67-1.352-1.336-2.363-2.01-3.037-.582-.601-1.27-.939-2-1.162 1.375-.478 2.457-1.166 3.168-2.118.772-1.018 1.155-2.32 1.155-3.884 0-2.26-.74-3.948-2.217-5.008-1.468-1.06-3.747-1.576-6.836-1.576zm.29.293h9.042c3.056 0 5.279.515 6.666 1.517v.002c1.397 1.003 2.095 2.574 2.095 4.772 0 1.518-.367 2.748-1.095 3.709-.718.96-1.809 1.674-3.287 2.136l-.514.16.525.122c.795.18 1.502.59 2.131 1.24l.002.002c.639.638 1.295 1.626 1.957 2.96l3.162 6.415h-6.082l-2.804-5.715c-.579-1.178-1.169-1.993-1.795-2.443-.615-.45-1.43-.67-2.43-.67h-1.848V75.176h-5.724Zm-178.978.566v4.969H90.21v4.293h2.781v7.275c0 2.229.46 3.837 1.418 4.805v.002c.968.957 2.576 1.418 4.805 1.418h4.943v-4.293h-3.021c-.943 0-1.555-.15-1.824-.385-.273-.247-.436-.755-.436-1.547V61.97h5.766v-4.293h-5.766v-4.969h-.146zm270.469 0v4.969h-2.781v4.293h2.781v7.275c0 2.229.46 3.837 1.418 4.805v.002c.968.957 2.578 1.418 4.807 1.418h4.941v-4.293h-3.021c-.944 0-1.555-.15-1.825-.385-.272-.247-.435-.755-.435-1.547V61.97h5.765v-4.293h-5.765v-4.969h-.147zM93.281 53h5.303v4.969h5.766v3.707h-5.766v7.568c0 .832.16 1.427.533 1.764v.002h.002c.377.328 1.043.459 2.016.459h2.73v3.707h-4.652c-2.188 0-3.714-.456-4.6-1.332-.875-.886-1.332-2.413-1.332-4.6v-7.568H90.5v-3.707h2.781zm270.469 0h5.303v4.969h5.765v3.707h-5.765v7.568c0 .832.16 1.427.533 1.764v.002h.002c.377.328 1.043.459 2.016.459h2.73v3.707h-4.65c-2.189 0-3.716-.456-4.602-1.332-.875-.886-1.332-2.413-1.332-4.6v-7.568h-2.781v-3.707h2.781Zm-86.057 3.207v6.277h2.678c1.279 0 2.213-.235 2.797-.74.593-.504.879-1.325.879-2.422 0-1.087-.286-1.899-.881-2.392-.584-.494-1.518-.723-2.795-.723zm.291.293h2.387c1.243 0 2.108.23 2.608.652h.002c.51.423.775 1.133.775 2.17 0 1.048-.267 1.768-.777 2.201v.002c-.5.433-1.365.666-2.608.666h-2.387zm-197.693.754c-2.642 0-4.616.448-5.926 1.371-1.31.923-1.969 2.357-1.969 4.244 0 1.747.514 3.08 1.551 3.955 1.039.877 2.808 1.454 5.31 1.768l.985.125h.002c1.127.134 1.873.335 2.201.554l.002.002h.002c.347.216.51.524.51.987 0 .548-.235.934-.752 1.217-.516.282-1.32.433-2.4.433-1.198 0-2.379-.134-3.545-.402a16.03 16.03 0 0 1-3.39-1.207l-.21-.102v4.594l.106.03c1.307.365 2.579.638 3.814.816 1.246.188 2.451.283 3.615.283 2.746 0 4.827-.469 6.239-1.432s2.127-2.424 2.127-4.324c0-1.808-.509-3.167-1.537-4.033-1.035-.871-2.979-1.464-5.854-1.83h-.002l-.984-.14h-.002c-1-.114-1.691-.296-2.05-.513h-.001c-.35-.218-.508-.5-.508-.906 0-.507.212-.848.686-1.09h.002c.484-.252 1.256-.388 2.306-.388.978 0 2.02.123 3.125.37a20.78 20.78 0 0 1 3.445 1.118l.202.084v-4.582l-.11-.027a35.253 35.253 0 0 0-3.719-.739 24.04 24.04 0 0 0-3.271-.236Zm36.018 0c-3.047 0-5.467.83-7.227 2.494-1.75 1.665-2.623 3.957-2.623 6.84 0 2.935.89 5.244 2.672 6.889 1.792 1.633 4.299 2.445 7.49 2.445 1.332 0 2.663-.133 3.994-.395a23.776 23.776 0 0 0 3.994-1.13l.094-.038v-4.656l-.215.117c-1.294.704-2.555 1.23-3.783 1.58a13.22 13.22 0 0 1-3.57.51c-1.437 0-2.535-.322-3.315-.951-.74-.598-1.168-1.502-1.324-2.693h13.035v-1.74c0-2.8-.842-5.06-2.527-6.745-1.675-1.685-3.916-2.527-6.695-2.527zm24.216 0a6.107 6.107 0 0 0-3.023.77c-.807.455-1.501 1.18-2.143 2.025v-2.373h-5.916v17.793h5.916v-8.756c0-1.618.29-2.845.85-3.686h.002c.56-.85 1.328-1.261 2.361-1.261.823 0 1.351.256 1.657.771h.002v.002c.294.488.478 1.73.478 3.658v9.272h5.916v-8.74c.021-1.64.317-2.877.867-3.717.56-.84 1.324-1.246 2.346-1.246.779 0 1.307.256 1.645.777.337.51.523 1.382.523 2.607 0 .27-.006.476-.016.616V65.775c0 .143-.006.28-.015.41v9.284h5.916V64.666c0-2.386-.532-4.226-1.614-5.5-1.081-1.274-2.664-1.912-4.705-1.912-1.19 0-2.29.295-3.29.88-.941.547-1.74 1.368-2.436 2.387-.487-.987-1.143-1.805-2.04-2.369-.95-.598-2.049-.898-3.28-.898zm29.159 0c-2.642 0-4.619.448-5.928 1.371-1.31.923-1.969 2.357-1.969 4.244 0 1.747.514 3.08 1.55 3.955 1.04.877 2.808 1.454 5.311 1.768l.985.125h.002c1.127.134 1.872.335 2.201.554l.002.002h.002c.347.216.51.524.51.987 0 .548-.235.934-.752 1.217-.517.282-1.32.433-2.4.433-1.198 0-2.379-.134-3.546-.402a16.03 16.03 0 0 1-3.39-1.207l-.21-.102v4.594l.106.03c1.307.365 2.58.638 3.815.816 1.246.188 2.453.283 3.617.283 2.746 0 4.824-.469 6.236-1.432s2.127-2.424 2.127-4.324c0-1.808-.508-3.167-1.537-4.033-1.034-.871-2.978-1.464-5.853-1.83h-.002l-.985-.14h-.002c-1-.114-1.69-.296-2.049-.513h-.002c-.349-.217-.507-.5-.507-.906 0-.507.212-.848.685-1.09h.002c.485-.252 1.257-.388 2.307-.388.977 0 2.02.123 3.125.37a20.78 20.78 0 0 1 3.445 1.118l.201.084v-4.582l-.11-.027a35.253 35.253 0 0 0-3.718-.739 24.011 24.011 0 0 0-3.27-.236zm30.92 0c-1.215 0-2.429.08-3.643.236a31.05 31.05 0 0 0-3.625.66l-.111.026V62.8l.214-.115a11.303 11.303 0 0 1 2.838-1.065 14.63 14.63 0 0 1 3.313-.355c1.465 0 2.53.21 3.19.603h.001c.658.383.975.965.975 1.813v.29h-3.152c-3.037 0-5.28.478-6.737 1.464-1.446.985-2.174 2.55-2.174 4.636 0 1.72.58 3.142 1.733 4.23h.002v.003c1.164 1.078 2.679 1.617 4.52 1.617 1.36 0 2.525-.244 3.488-.736h.002c.863-.451 1.617-1.216 2.318-2.131v2.414h5.932V65.338c0-2.827-.712-4.896-2.159-6.172-1.436-1.286-3.75-1.912-6.925-1.912zm25.562 0c-1.167 0-2.238.251-3.207.752-.878.444-1.692 1.183-2.475 2.072v-2.402H214.6v17.793h5.884v-8.756c0-1.574.33-2.786.971-3.649h.002c.643-.873 1.504-1.298 2.633-1.298.458 0 .857.097 1.209.293l.002.002h.002c.353.186.628.446.834.789v.002c.147.238.26.643.322 1.205l.002.002c.071.557.108 1.6.108 3.107v8.302h5.916V64.667c0-2.386-.532-4.226-1.614-5.5-1.071-1.274-2.655-1.912-4.705-1.912zm78.375 0c-3.047 0-5.454.824-7.193 2.478-1.73 1.655-2.592 3.952-2.592 6.856s.863 5.2 2.592 6.855c1.739 1.655 4.146 2.479 7.193 2.479 3.037 0 5.43-.824 7.148-2.479 1.73-1.654 2.592-3.951 2.592-6.855 0-2.904-.863-5.2-2.592-6.856-1.718-1.655-4.111-2.478-7.148-2.478zm44.893 0c-3.047 0-5.456.824-7.196 2.478-1.729 1.655-2.592 3.952-2.592 6.856s.863 5.2 2.592 6.855c1.74 1.655 4.149 2.479 7.196 2.479 3.036 0 5.427-.824 7.146-2.479 1.729-1.654 2.592-3.951 2.592-6.855 0-2.904-.863-5.2-2.592-6.856-1.719-1.655-4.11-2.478-7.146-2.478zm48.687 0c-3.181 0-5.693.823-7.506 2.476-1.813 1.644-2.719 3.943-2.719 6.858 0 2.915.906 5.219 2.72 6.873 1.812 1.643 4.324 2.46 7.505 2.46.915 0 1.823-.085 2.727-.253a15.266 15.266 0 0 0 2.697-.725l.096-.035v-4.974l-.235.18c-.654.5-1.368.877-2.144 1.132a7.664 7.664 0 0 1-2.44.383c-1.533 0-2.704-.439-3.549-1.313l-.002-.002c-.833-.885-1.255-2.118-1.255-3.726 0-1.61.421-2.838 1.255-3.713.846-.885 2.017-1.328 3.551-1.328a7.41 7.41 0 0 1 2.33.367h.002a8.815 8.815 0 0 1 2.258 1.137l.229.156v-4.94l-.096-.035a15.772 15.772 0 0 0-2.695-.724h-.002a14.712 14.712 0 0 0-2.727-.254zm16.92 0c-2.642 0-4.616.448-5.926 1.371-1.31.923-1.969 2.357-1.969 4.244 0 1.747.514 3.08 1.551 3.955 1.039.877 2.808 1.454 5.31 1.768l.985.125h.002c1.127.134 1.873.335 2.201.554l.002.002h.002c.347.216.51.524.51.987 0 .548-.235.934-.752 1.217-.516.282-1.318.433-2.398.433-1.198 0-2.38-.134-3.547-.402a16.03 16.03 0 0 1-3.39-1.207l-.21-.102v4.594l.106.03c1.307.365 2.579.638 3.814.816 1.246.188 2.451.283 3.615.283 2.746 0 4.827-.469 6.239-1.432s2.127-2.424 2.127-4.324c0-1.808-.509-3.167-1.537-4.033-1.035-.871-2.979-1.464-5.854-1.83h-.002l-.984-.14h-.002c-1-.114-1.691-.296-2.05-.513h-.001c-.35-.217-.508-.5-.508-.906 0-.507.212-.848.686-1.09h.002c.484-.252 1.258-.388 2.308-.388.977 0 2.018.123 3.123.37a20.78 20.78 0 0 1 3.446 1.118l.2.084v-4.582l-.109-.027a35.253 35.253 0 0 0-3.718-.739 24.04 24.04 0 0 0-3.272-.236zm-334.75.293c1.024 0 2.101.077 3.23.232 1.096.151 2.295.392 3.579.71v3.93c-1.131-.46-2.232-.83-3.291-1.067a14.604 14.604 0 0 0-3.19-.38c-1.074 0-1.883.135-2.44.424-.547.28-.845.751-.845 1.348 0 .49.227.893.646 1.154l.002.002c.434.263 1.148.436 2.165.551l.986.14c2.853.364 4.762.969 5.707 1.765.95.8 1.432 2.056 1.432 3.81 0 1.829-.66 3.17-1.999 4.082-1.337.912-3.363 1.381-6.076 1.381-1.148 0-2.337-.093-3.57-.28h-.002a29.76 29.76 0 0 1-3.672-.785v-3.927c1.06.497 2.138.9 3.244 1.156 1.188.273 2.39.41 3.61.41 1.107 0 1.951-.151 2.539-.473.587-.32.904-.831.904-1.47 0-.537-.224-.967-.646-1.23v-.003c-.422-.28-1.184-.463-2.325-.6h-.002l-.982-.124c-2.476-.311-4.197-.89-5.158-1.701-.963-.813-1.45-2.042-1.45-3.733 0-1.82.612-3.137 1.844-4.006 1.233-.868 3.152-1.316 5.76-1.316zm36.018 0c2.72 0 4.873.814 6.49 2.441 1.627 1.628 2.441 3.796 2.441 6.537v1.448h-13.094l.016.162c.138 1.34.63 2.367 1.477 3.05.845.684 2.016 1.018 3.496 1.018 1.191 0 2.41-.174 3.65-.521 1.181-.338 2.393-.864 3.627-1.518v3.986a23.47 23.47 0 0 1-3.85 1.092h-.002a20.343 20.343 0 0 1-3.939.387c-3.142 0-5.565-.792-7.293-2.367-1.718-1.585-2.578-3.797-2.578-6.674 0-2.825.845-5.023 2.533-6.629 1.699-1.606 4.03-2.412 7.026-2.412zm24.216 0c1.185 0 2.224.283 3.127.851.904.569 1.586 1.362 2.055 2.391l.04.086h.171l.043-.066c.698-1.068 1.52-1.874 2.467-2.424a6.103 6.103 0 0 1 3.144-.838c1.98 0 3.462.602 4.485 1.807 1.022 1.204 1.543 2.969 1.543 5.312v10.51h-5.334V66.197c.01-.132.015-.27.015-.412v-.01c.01-.151.016-.356.016-.625 0-1.253-.178-2.173-.57-2.767-.392-.604-1.043-.91-1.89-.91-1.102 0-1.983.47-2.589 1.379-.595.909-.893 2.202-.914 3.875v8.449H141v-8.979c0-1.946-.15-3.194-.521-3.81-.362-.608-1.022-.914-1.907-.914-1.113 0-2 .475-2.605 1.394-.607.91-.899 2.193-.899 3.846v8.463h-5.334V57.969h5.334v2.88l.266-.38c.677-.975 1.447-1.704 2.31-2.192.875-.488 1.831-.73 2.881-.73zm29.159 0c1.023 0 2.099.077 3.228.232 1.096.151 2.294.392 3.578.71v3.93c-1.13-.46-2.232-.83-3.29-1.067a14.604 14.604 0 0 0-3.19-.38c-1.074 0-1.883.135-2.44.424-.547.28-.845.751-.845 1.348 0 .49.226.893.646 1.154l.002.002c.433.263 1.147.436 2.164.551l.986.14c2.853.364 4.763.969 5.708 1.765.95.8 1.431 2.056 1.431 3.81 0 1.829-.66 3.17-1.998 4.082-1.338.912-3.362 1.381-6.074 1.381-1.148 0-2.34-.093-3.572-.28h-.002a29.751 29.751 0 0 1-3.672-.785v-3.927c1.059.497 2.138.9 3.244 1.156 1.188.273 2.39.41 3.61.41 1.106 0 1.95-.151 2.538-.472.588-.322.905-.832.905-1.471 0-.537-.224-.967-.647-1.23v-.003c-.421-.28-1.184-.463-2.324-.6h-.002l-.982-.124c-2.476-.311-4.197-.89-5.159-1.701-.962-.813-1.449-2.042-1.449-3.733 0-1.82.612-3.137 1.844-4.006 1.232-.868 3.153-1.316 5.762-1.316zm30.92 0c3.137 0 5.377.624 6.732 1.838 1.365 1.203 2.06 3.175 2.06 5.953v9.838h-5.35V72.27l-.263.375c-.74 1.047-1.567 1.806-2.48 2.283-.912.466-2.03.7-3.356.7-1.783 0-3.213-.512-4.32-1.536l-.002-.002c-1.096-1.036-1.64-2.364-1.64-4.018 0-2.019.678-3.463 2.044-4.394 1.377-.932 3.569-1.412 6.574-1.412h3.444v-.584c0-.924-.382-1.634-1.12-2.063-.736-.44-1.845-.646-3.337-.646-1.208 0-2.334.12-3.377.363-.966.224-1.856.578-2.697 1.012v-3.936a30.733 30.733 0 0 1 3.48-.633h.002a28.078 28.078 0 0 1 3.606-.232zm25.562 0c1.991 0 3.47.602 4.482 1.807h.002c1.023 1.204 1.543 2.969 1.543 5.312v10.51h-5.334v-8.01c0-1.513-.036-2.554-.11-3.143l.001.002c-.063-.583-.18-1.02-.365-1.324a2.393 2.393 0 0 0-.943-.896 2.743 2.743 0 0 0-1.352-.332c-1.204 0-2.177.482-2.867 1.42-.692.929-1.03 2.206-1.03 3.82v8.463h-5.302V57.969h5.302v2.82l.258-.312c.834-1.01 1.715-1.745 2.64-2.213h.003c.927-.479 1.947-.717 3.072-.717zm78.375 0c2.984 0 5.29.801 6.947 2.396 1.667 1.596 2.502 3.799 2.502 6.645 0 2.846-.835 5.05-2.502 6.644-1.656 1.595-3.963 2.397-6.947 2.397-2.995 0-5.315-.801-6.992-2.397-1.667-1.595-2.502-3.798-2.502-6.644s.835-5.05 2.502-6.645c1.677-1.595 3.997-2.396 6.992-2.396zm44.893 0c2.984 0 5.289.801 6.945 2.396 1.667 1.596 2.502 3.799 2.502 6.645 0 2.846-.835 5.05-2.502 6.644-1.656 1.595-3.961 2.397-6.945 2.397-2.995 0-5.317-.801-6.995-2.397-1.667-1.595-2.502-3.798-2.502-6.644s.835-5.05 2.502-6.645c1.678-1.595 4-2.396 6.995-2.396zm48.687 0c.908 0 1.8.081 2.676.246h.002c.855.15 1.704.385 2.55.687v4.217c-.695-.451-1.397-.83-2.105-1.06h-.002a7.712 7.712 0 0 0-2.42-.383c-1.59 0-2.855.474-3.76 1.422-.894.938-1.337 2.25-1.337 3.912 0 1.66.441 2.98 1.336 3.928h.002v.002c.905.937 2.169 1.404 3.76 1.404.889 0 1.734-.133 2.53-.399.723-.237 1.376-.614 1.997-1.056v4.228c-.837.303-1.686.539-2.551.688h-.002c-.887.165-1.779.246-2.676.246-3.131 0-5.559-.797-7.309-2.383-1.75-1.596-2.625-3.803-2.625-6.658 0-2.856.876-5.057 2.625-6.643 1.75-1.596 4.178-2.398 7.31-2.398zm16.92 0c1.024 0 2.101.077 3.23.232 1.096.151 2.295.392 3.579.71v3.93c-1.131-.46-2.232-.83-3.291-1.067a14.587 14.587 0 0 0-3.188-.38c-1.074 0-1.885.135-2.441.424-.548.28-.846.751-.846 1.348 0 .49.227.893.646 1.154l.002.002c.434.263 1.148.436 2.165.551l.986.14c2.853.364 4.762.969 5.707 1.765.95.8 1.432 2.056 1.432 3.81 0 1.829-.66 3.17-1.999 4.082-1.337.912-3.363 1.381-6.076 1.381-1.148 0-2.337-.093-3.57-.28h-.002a29.751 29.751 0 0 1-3.672-.785v-3.927c1.06.497 2.138.9 3.244 1.156 1.188.273 2.392.41 3.612.41 1.107 0 1.95-.151 2.537-.472.587-.322.904-.832.904-1.471 0-.537-.224-.967-.646-1.23v-.003c-.422-.28-1.184-.463-2.325-.6h-.002l-.982-.124c-2.476-.311-4.197-.89-5.158-1.701-.963-.813-1.45-2.042-1.45-3.733 0-1.82.612-3.137 1.844-4.006 1.232-.868 3.152-1.316 5.76-1.316zm-364.846.129.088.203 7.776 18.123-.141.434c-.234.762-.56 1.273-.959 1.548h-.002c-.386.273-1.046.426-1.979.426h-1.894v3.965h3.379c1.637 0 2.971-.399 3.98-1.203l.002-.002c1.022-.797 1.895-2.179 2.639-4.139v-.002l7.436-19.353h-5.91l-3.907 11.597-4.594-11.597zm328.045 0v17.793h5.885V57.676Zm-327.601.293h5.273l4.813 12.152 4.093-12.152h5.278l-7.284 18.957v.002c-.734 1.934-1.59 3.268-2.546 4.013h-.002v.002c-.95.757-2.21 1.14-3.801 1.14h-3.088v-3.38h1.604c.962 0 1.677-.15 2.146-.48.475-.328.825-.901 1.07-1.7l.174-.537zm327.892 0h5.303v17.207h-5.303zm-262.254 3.004c-1.11 0-2.033.32-2.738.959-.707.63-1.142 1.543-1.312 2.713l-.026.168h7.58v-.147c0-1.09-.325-1.988-.976-2.662-.642-.685-1.496-1.031-2.528-1.031zm188.264.28c-1.275 0-2.279.474-2.96 1.405-.673.921-.997 2.234-.997 3.93 0 1.696.325 3.014.996 3.945h.002c.682.92 1.685 1.389 2.96 1.389 1.253 0 2.244-.468 2.915-1.389.671-.93.996-2.25.996-3.945 0-1.696-.324-3.009-.996-3.93-.671-.93-1.662-1.404-2.916-1.404zm44.893 0c-1.275 0-2.281.474-2.963 1.405-.672.921-.996 2.234-.996 3.93 0 1.696.325 3.014.996 3.945h.002c.682.92 1.686 1.389 2.96 1.389 1.255 0 2.243-.468 2.915-1.389.67-.93.996-2.25.996-3.945 0-1.696-.325-3.009-.996-3.93-.672-.93-1.66-1.404-2.914-1.404zm-233.157.013c.969 0 1.727.31 2.315.937h.002v.002c.566.585.843 1.358.873 2.315h-6.904c.18-1.028.559-1.825 1.17-2.37v-.002h.001c.649-.588 1.488-.882 2.543-.882zm129.47.05c-1.224 0-2.194.464-2.854 1.373v.002c-.65.911-.965 2.212-.965 3.897 0 1.685.314 2.986.965 3.896v.002c.66.91 1.63 1.373 2.853 1.373 1.233 0 2.201-.464 2.852-1.375.66-.91.98-2.212.98-3.896 0-1.684-.32-2.986-.98-3.896-.65-.911-1.619-1.375-2.852-1.375zm81.763 0c-1.234 0-2.212.47-2.883 1.39-.661.91-.98 2.207-.98 3.882 0 1.675.32 2.976.98 3.896v.002h.002c.671.91 1.647 1.373 2.88 1.373 1.234 0 2.204-.464 2.854-1.375.66-.91.98-2.212.98-3.896 0-1.684-.32-2.986-.98-3.897-.65-.91-1.62-1.375-2.853-1.375zm-22.969.23c1.183 0 2.06.423 2.68 1.284.62.85.941 2.1.941 3.758s-.32 2.912-.941 3.773c-.62.85-1.496 1.268-2.68 1.268-1.204 0-2.094-.418-2.725-1.268-.62-.86-.941-2.115-.941-3.773 0-1.659.321-2.908.941-3.758.63-.86 1.52-1.283 2.725-1.283zm44.893 0c1.183 0 2.057.423 2.677 1.284.62.85.942 2.1.942 3.758s-.321 2.912-.942 3.773c-.62.85-1.494 1.268-2.677 1.268-1.205 0-2.097-.418-2.727-1.268-.62-.86-.941-2.115-.941-3.773 0-1.659.321-2.908.941-3.758.63-.86 1.522-1.283 2.727-1.283zm-103.688.063c1.163 0 2.016.411 2.615 1.25v.002c.61.84.926 2.079.926 3.727 0 1.648-.316 2.887-.926 3.727v.002c-.6.839-1.452 1.25-2.615 1.25-1.152 0-2.007-.412-2.617-1.252-.6-.84-.91-2.08-.91-3.727 0-1.648.31-2.887.91-3.727.61-.84 1.465-1.252 2.617-1.252zm81.764 0c1.162 0 2.018.411 2.617 1.25v.002c.61.84.926 2.079.926 3.727 0 1.648-.316 2.887-.926 3.727v.002c-.6.839-1.455 1.25-2.617 1.25-1.163 0-2.028-.412-2.649-1.252-.61-.85-.923-2.09-.923-3.727 0-1.638.316-2.871.925-3.711.62-.85 1.485-1.268 2.647-1.268zm-126.514 5.692c-1.183 0-2.092.199-2.723.619-.62.42-.939 1.063-.939 1.871 0 .74.254 1.348.754 1.781v.002h.002c.511.423 1.21.63 2.076.63 1.087 0 2.019-.395 2.762-1.17v-.003h.002c.743-.786 1.117-1.777 1.117-2.943V67.3zm0 .293h2.76v.494c0 1.104-.345 2.008-1.037 2.742h-.002v.002c-.694.723-1.535 1.078-2.551 1.078-.82 0-1.442-.19-1.889-.558h-.002c-.436-.379-.65-.886-.65-1.56 0-.735.263-1.259.81-1.63.558-.371 1.41-.568 2.561-.568z" style="color:#000;-inkscape-font-specification:&quot;sans-serif Bold&quot;;fill:#393938;stroke:none;-inkscape-stroke:none" transform="translate(-29.13 -10.864)"/></g><g stroke="none" style="font-weight:700;font-size:32px;-inkscape-font-specification:&quot;sans-serif Bold&quot;;text-align:center;white-space:pre;fill:#cf0;stroke:#393938;stroke-width:.291024"><path d="M126.62 119.541c-5.088 1.519-6.9-3.18-8.172-7.328-2.568-7.132-.515-15.025 3.531-21.172 6.747-1.531 2.944 3.067 1.641 7.25-2.182 7.153-.604 14.852 3 21.25zm5.5-27.547c2.202.538 7.055-1.574 6.016 2.206v16.575h10.562c.388 3.08.286 5.67-3.528 4.547h-13.05V91.994zm34.547 19.078h-9.406c-.613 2.907-1.587 5.306-5.013 4.25-4.366 1.125-.951-3.167-.527-5.377l6.65-17.95c2.314.531 6.12-1.082 7.477.826l8.335 22.501c-2.388-.51-6.563 1.49-6.768-2.084l-.748-2.166zm-7.906-4.328c1.841-.626 7.584 1.533 5.817-1.669l-2.614-7.612-3.203 9.281zm34.75-14.015c1.526 6.55-2.56 3.825-7.203 3.203-8.416.805-1.21 6.088 3.367 5.754 10.22 2.297 4.12 17.068-5.025 14.063-4.796.154-9.382-1.303-7.811-6.724 3.97 5.115 18.758.567 8.429-2.986-8.297.861-12.463-11.47-3.64-13.998 3.901-.997 8.048-.256 11.883.688zm15.36 9.609c8.715-.27-1.06-10.007-2.532-4.661.343 2.35-1.322 5.75 2.531 4.66zm-2.532 4.156v8.828c-2.202-.538-7.055 1.575-6.016-2.205V91.994c5.632.486 12.2-1.488 16.881 2.433 4.565 3.908-2.555 9.842-2.103 10.45 3.229 2.638 4.268 6.926 6.285 10.445-2.354-.593-6.354 1.454-7.184-1.584-1.789-3.332-2.911-8.305-7.863-7.244zm18.25 13.047c5.197-8.651 5.213-19.852 0-28.5 5.092-1.52 6.905 3.186 8.156 7.344 2.594 7.122.533 15.016-3.516 21.156h-4.64zm24.937-15.703h9.813c.388 3.08.286 5.67-3.529 4.547-2.015-.668-6.998 1.633-6.284-1.765v-2.782zm25.625-11.844c2.203.538 7.056-1.574 6.016 2.206v16.575h10.562c.388 3.08.286 5.67-3.528 4.547h-13.05V91.994zm27.985 15.453c-7.748-.027.077 8.96 2.636 2.203 1.365-3.113-.837-2.01-2.636-2.203zm8.547-2.11v9.985c-2.403-.341-6.858 1.368-5.641-2.593-5.036 8.91-18.447-2.86-8.74-7.801 2.503-1.518 13.093.64 6.353-3.653-4.3.362-11.055 1.998-7.245-3.19 5.958-1.323 16.017-1.685 15.273 7.253zm14.515 6.376c10.237-2.406-2.776-17.69-3.719-5.125-.118 2.26.9 5.291 3.72 5.125zm-3.719-11.328c6.295-8.255 16.35 2.212 12.668 9.883-.797 7.614-11.182 4.88-12.668 3.405 1.021 2.685-5.506 2.105-5.593.767V91.01c2.43.316 6.837-1.344 5.593 2.646v6.729z" style="color:#000;-inkscape-font-specification:&quot;sans-serif Bold&quot;;fill:#002557;stroke:none;-inkscape-stroke:none" transform="translate(-29.13 -10.864)"/><path d="M316.74 90.863v24.606c2.165-.533 6.965 1.57 5.885-2.206 5.191 6.829 15.64-.849 13.056-8.627.51-8.97-11.623-7.048-13.056-5.89-.294-2.481.588-6.138-.441-7.883h-5.444zm-194.842.032c-5.805 8.118-6.27 19.435-.622 27.76 2.156 2.4 8.52 1.332 3.717-2.845-3.64-7.987-2.526-17.458 1.87-24.915h-4.965zm102.448 0c5.337 8.716 5.321 20.072 0 28.793 4.376 1.11 6.926-1.356 7.9-5.662 3.42-7.567 1.565-16.433-2.935-23.131h-4.965zm92.685.261c2.37.28 6.603-1.303 5.303 2.647.474 1.878-1.223 9.296 1.46 5.363 7.844-6.116 14.937 5.92 10.575 12.597-1.792 7.565-11.717.992-12.035 1.918.967 2.427-5.388 2.041-5.303.615v-23.14zm-194.96.031c6.958-1.597 1.836 3.93 1.174 7.951-1.835 6.847-.249 14.17 3.157 20.258-5.282 1.57-6.737-4.061-8.082-8.093-2.182-6.888-.049-14.237 3.75-20.115zm102.736 0c5.291-1.573 6.733 4.075 8.07 8.111 1.978 6.575.43 15.874-4.62 20.098-6.87 1.405.778-6.016.084-9.742 1.235-6.358-.479-12.881-3.534-18.466zm-39.453.239c-9.756-1.948-12.323 13.992-2.016 14.336 5.318-.71 8.41 6.376.878 5.473-4.153-.196-9.116-4.879-7.523 1.96 3.184 3.793 13.309 3.97 17.174-.276 4.47-6.435-2.033-12.453-8.531-12.333-8.486-3.358 4.986-6.592 8.32-2.695 1.206-4.794-1.383-6.93-6.342-6.39l-.987-.056-.973-.02zm0 .293c4.348-.11 9.68.239 8.011 5.744-3.133-2.861-15.208-2.055-9.652 2.994 5.778.651 13.879 3.592 10.622 11.005-2.831 5.763-14.562 5.435-17.35 1.209-1.462-6.888 6.186 1.106 9.968-1.276 7.585-5.82-7.407-5.079-9.289-9.135-3.13-5.423 1.775-11.349 7.69-10.541zm-53.38.129v23.62h16.87c.293-3.082.42-6-3.529-4.84-2.14-.645-7.005 1.434-7.034-1.322V91.848h-6.306zm26.296 0-8.75 23.62c2.263-.625 6.504 1.534 6.94-1.665.014-3.752 3.675-2.365 6.196-2.584 3.42-.908 4.85.978 5.347 4.17 1.579-.426 7.11 1.386 5.93-1.161l-8.29-22.38h-7.373zm41.908 0v23.62c2.024-.665 7.01 1.631 6.306-1.764.587-2.062-1.18-6.477.883-7.063 4.872-.364 5.401 5.68 7.522 8.828 1.698-.613 7.523 1.34 6.145-1.187-2.05-3.389-2.85-8.147-6.794-9.848 8.55-2.843 2.894-15.12-5.171-12.586h-8.891zm74.828 0v23.62h16.869c.293-3.082.42-6-3.529-4.84-2.14-.645-7.004 1.434-7.034-1.322V91.848h-6.306zm-142.74.293c2.455.335 6.947-1.367 5.724 2.646v16.135h10.563c.691 3.433-.34 5.145-3.97 4.256h-12.317V92.14zm26.205 0c2.338.612 6.472-1.355 7.43 1.24l8.074 21.797c-2.29-.5-6.352 1.485-6.455-2.085-.019-3.571-3.89-1.737-6.147-2.165-3.202-.668-5.212.344-5.524 3.747-.802.563-6.923 1.563-5.452-.738l8.074-21.796zm41.998 0c5.234.344 10.883-1.002 15.707 1.52 5.103 3.176.242 10.573-2.276 10.898 4.254 1.777 5.007 7.021 7.252 10.619-2.459-.487-6.407 1.416-7.053-1.98-1.516-3.377-3.361-7.894-7.906-6.85v8.83c-2.455-.335-6.947 1.367-5.724-2.647v-20.39zm74.828 0c2.455.335 6.947-1.367 5.724 2.646v16.135h10.563c.691 3.433-.339 5.145-3.97 4.256h-12.317V92.14zm-69.104 4.066c.668 2.013-1.633 6.995 1.765 6.277 8.032.162 4.652-8.065-1.765-6.277zm.291.293c5.934-2.344 8.16 7.119 1.064 5.691-2.197.612-.55-4.492-1.064-5.691zm-44.52.516c-.971 3.223-2.683 6.973-3.204 9.875 1.919-.62 7.7 1.518 6.023-1.67l-2.818-8.205zm140.782.238c-4.119-.173-9.054.076-7.38 5.333 1.481-2.802 14.309-.693 8.766 1.386-6.099-1.599-14.026 4.406-8.564 10.33 2.85 4.587 10.167-1.356 10.329.075-.265 1.844 5.879 1.615 5.931.209-.456-5.155 1.368-11.1-2.158-15.421-1.897-1.634-4.531-1.886-6.924-1.912zm0 .293c6.878-1.145 9.767 5.597 8.791 11.32-.666 2.025 1.63 7.013-1.764 6.31-4.127 2.32-3.115-3.916-4.42-1.8-5.583 7.565-16.991-3.921-7.997-8.313 2.704-1.425 13.431.59 6.326-3.933-4.002.072-10.886 2.145-7.158-2.915 2.044-.426 4.133-.67 6.222-.67zm-140.783.363 2.984 8.688c-2.018-.507-7.545 1.487-5.263-2.085l2.279-6.603zm164.234 3.406c-9.791 1.587.627 17.958 3.774 6.463.315-2.604-.29-6.553-3.774-6.463zm0 .293c8.845 1.306-.554 17.087-3.513 6.132-.307-2.43.269-6.249 3.513-6.132zm-76.816 2.082c-.076 2.719-.764 6.049 3.087 4.84 2.133-.647 6.996 1.437 7.016-1.323 1.166-3.955-1.78-3.8-4.852-3.517h-5.251zm.29.293h9.522c.692 3.434-.339 5.145-3.97 4.256-2.422-.31-6.802 1.337-5.551-2.646v-1.61zm53.464 3.319c-8.338.447.23 9.131 2.773 2.399 1.353-3.265-.768-2.249-2.773-2.4zm0 .29c6.426-1.71-.4 8.111-3.208 3.09-.885-2.15 1.388-3.307 3.208-3.09z" style="color:#000;-inkscape-font-specification:&quot;sans-serif Bold&quot;;fill:#393938;stroke:none;-inkscape-stroke:none" transform="translate(-29.13 -10.864)"/></g></svg>
