<svg xmlns="http://www.w3.org/2000/svg" xml:space="preserve" style="enable-background:new 0 0 449.7 142.9;fill:#002557" viewBox="0 0 449.7 142.9"><path d="M297.2 86.4v15.5H359l2.4 2.9 10.5-11.5-5.7-6.9M114.1 4.2c-3.4-1.7-7.3-2.6-11.9-2.6H80.8v65.8h21.4c4.6 0 8.5-.9 11.9-2.6 3.4-1.8 6-4.3 7.9-7.5 1.9-3.2 2.9-6.9 2.9-11.1V22.7c0-4.3-1-8-2.9-11.1-1.8-3.2-4.5-5.7-7.9-7.4zm-2.8 42c0 2.7-.9 4.8-2.6 6.5-1.7 1.7-3.9 2.5-6.6 2.5h-7.8V13.8h7.8c2.7 0 4.9.8 6.6 2.5 1.7 1.6 2.6 3.8 2.6 6.4v23.5zM176.1 32.9c2.1-3.3 3.2-7.1 3.2-11.4 0-4-1-7.6-2.9-10.6-1.8-3-4.5-5.3-7.9-6.9-3.5-1.6-7.5-2.4-12.2-2.4h-21.1v65.8h13.3V42.5h6.3l10.7 24.7h14.6l-12.4-27c3.6-1.5 6.4-3.9 8.4-7.3zm-12.9-4.4c-1.6 1.5-3.9 2.3-6.9 2.3h-7.8V13.3h7.8c3 0 5.3.7 6.9 2.3 1.7 1.6 2.5 3.8 2.5 6.6 0 2.7-.8 4.8-2.5 6.3zM231.1 55.7h-27.3V39.3H228V28.1h-24.2V13.3h27.3V1.6h-40.6v65.8h40.6zM270.4 27.7l-8.3-1.9c-4.1-1-6.2-3.2-6.2-6.6 0-2.1.8-3.7 2.2-5 1.4-1.3 3.4-1.9 6-1.9s4.7.7 6.2 2c1.5 1.2 2.3 3 2.3 5.3h13.2c0-5.8-2-10.3-5.9-13.7C276 2.5 270.7.8 264.1.8c-6.6 0-11.9 1.6-15.7 5-3.8 3.4-5.7 8-5.7 13.9 0 4.8 1.5 8.9 4.5 12.4 3.1 3.4 7.2 5.7 12.4 6.9l8 1.9c2.1.5 3.7 1.5 4.8 3 1.1 1.5 1.6 3.1 1.6 5 0 2.4-.8 4.3-2.5 5.7-1.7 1.4-4 2.1-6.9 2.1-3 0-5.4-.8-7.2-2.2-1.7-1.6-2.6-3.5-2.6-6h-13.2c0 4 .9 7.5 2.8 10.5s4.6 5.3 8 6.9c3.5 1.6 7.6 2.4 12.2 2.4s8.6-.8 12.1-2.2c3.4-1.7 6-4 7.8-6.9 1.9-3 2.8-6.4 2.8-10.3 0-5.3-1.5-9.9-4.6-13.7-3-3.9-7.1-6.4-12.3-7.5zM330.4 64.8c3.4-1.8 6-4.3 7.9-7.5 1.9-3.2 2.9-6.9 2.9-11.1V22.7c0-4.3-1-8-2.9-11.1-1.8-3.2-4.5-5.7-7.9-7.4-3.4-1.7-7.3-2.6-11.9-2.6h-21.3v65.8h21.3c4.6 0 8.5-.9 11.9-2.6zm-19.7-51h7.8c2.7 0 4.9.8 6.6 2.5 1.7 1.6 2.6 3.8 2.6 6.4v23.5c0 2.7-.9 4.8-2.6 6.5-1.7 1.7-3.9 2.5-6.6 2.5h-7.8V13.8zM393.4 55.7h-27.3V39.3h24.2V28.1h-24.2V13.3h27.3V1.6h-40.6v65.8h40.6zM436.5 1.6v27c0 2.1.1 4.6.2 7.5.1 2.8.4 5.8.6 8.7.2 2.9.4 5.5.6 7.7l-17-50.9h-15.8v65.8H417V38.6c0-2.1-.1-4.5-.3-7.2s-.3-5.4-.5-8c-.1-2.7-.3-5-.5-6.9l16.9 50.9h15.8V1.6h-11.9zM121.5 87V74.8H82.7V87h23.4l-24.2 41.5v12.2h40.5v-12.2H97.2zM156.3 74.1c-6.6 0-11.9 1.9-15.8 5.6-3.9 3.6-5.9 8.7-5.9 15.1v26.1c0 6.3 2 11.4 5.9 15.1s9.2 5.6 15.8 5.6 11.8-1.9 15.8-5.6c3.9-3.7 5.9-8.7 5.9-15.1V94.8c0-6.4-2-11.4-5.9-15.1-3.9-3.7-9.2-5.6-15.8-5.6zm8.1 47.7c0 5.4-2.7 8.1-8.1 8.1-5.5 0-8.2-2.7-8.1-8.1V93.9c0-5.4 2.7-8.1 8.1-8.1 5.4 0 8.1 2.7 8.1 8.1v27.9zM220.1 101.9c0 2.1.1 4.6.2 7.5.1 2.8.4 5.8.6 8.7.2 2.9.4 5.5.6 7.7l-17-50.9h-15.8v65.8h11.9v-28.8c0-2.1-.1-4.5-.3-7.2-.2-2.7-.3-5.4-.5-8-.1-2.7-.3-5-.5-6.9l16.9 50.9H232V74.9h-11.9v27zM244.6 140.7h40.6V129h-27.3v-16.4h24.2v-11.2h-24.2V86.6h27.3V74.9h-40.6zM414.6 108.3c-6 0-11.2 3.3-14 8.2h-9.2l-2.9-3.4-10.5 11.5 6.1 7.3h16.4c2.7 4.9 8 8.2 14 8.2 8.8 0 16-7.2 16-16s-7.1-15.8-15.9-15.8zm0 21.7c-3.1 0-5.7-2.5-5.7-5.7 0-3.1 2.5-5.7 5.7-5.7s5.7 2.5 5.7 5.7c0 3.1-2.6 5.7-5.7 5.7z"/><path d="M297.2 116.4v15.5h67.2L395 98.3h23.3c2.7 4.9 8 8.3 14 8.3 8.8 0 16-7.2 16-16s-7.2-16-16-16c-6 0-11.2 3.3-13.9 8.2h-30.2l-30.6 33.6m74.7-20c-3.1 0-5.7-2.5-5.7-5.7 0-3.1 2.5-5.7 5.7-5.7s5.7 2.5 5.7 5.7c0 3.1-2.5 5.7-5.7 5.7zM38.9 17.5c1.5 0 3 .5 4.4 1.1-.2-2.8-3.8-4.5-5.8-3.6-6.2 2.6-8.7-3.9-3.2-6.8-5.5-2.7-11.4 3.5-6.6 8.3 1.9 1.9 6.5 1 11.2 1z"/><path d="M60.4 47.2C74.6 36.7 76.9 14.4 62 4.4l.7-2.4h-1.8c-1.1 0-3.1-.2-3.1-.2C52.7 1.8 46.1.2 44 4.1h-7.6c-.5 3.4-.4 6.3-.1 10 .3.3.8.7.9.8 2.5-2.7 9 2.6 6.7 4.2-2.9.7-4 0-5.9-1.2.7 6.6 3.9 6.6 8.4 5.6 0 3-.3 2.3-2.4 3-4.4-.7-6.9 0-11.2 1.4-4.9-5.3-11.5-12.6-12.1-16.1 4.6-2.4.5-6.3 3.6-7.8-4.1.4-5.7-3-9.3 1.2C11.8.2 8.4 3 5.6 1.7c1.7 2.7-1.8 4.6 1.6 8.8-5.5 1.8-1 5.1-2.7 9.3 3.9-1.6 4.5.7 9.4-2.2 1.6 5.4-1.5 13.6 4.6 18.8 2.1-2.6 4.8-5.2 7.9-2.6-.7 2.8-1.6 2.5-1.4 8.6-1.2.7-4.4 3.3-7.2 4-.8-6.3-5.9-4.2-6.1-7.5-1 4.2-4.9 3.5-3.4 9.1-5.2.1-3.9 4.2-6.8 5.4 2.9.9 3.5 5.1 8.3 3.7-1.1 5.1 3.2 4 4.8 7.9 1.3-3.4 4.6-2.8 4.6-9.5 4.5 3.2 7 3.2 10.5-.6 1.1.9 4.4 4.3 7.4 5.8 3.7 2 5.1 6.4 3.2 9.9-3.1 3.9-9.1.6-11.1-.8-1.5-1.4-4.2-5.2-6.1-5.2-5.6-.1-8.3 6.3-6.4 11.3.9 3.2 4.1 3.2 5.3 4.5 2.9 2.4 1.4 10-.9 13.5-1.8-5.5-6.5-2.8-6.8-6-1.3 4.5-3.9 3.8-2.2 9.2-5.8 1.6-2.5 6.6-4.3 9.1 4.2-2.2 3.2 2 8.8-.8-1.3 5.1 4.4 3.2 6.4 6-.6-3.5 3.1-3.8 1.1-10 8.4-5.4 11.6-6 16.2-14.4-3.6-.4-4.2-2-3.9-6.3 4.5 2.6 7.3 3 11.6.6C48.8 92 43.8 97 37.7 101c-.1 5.1 3.7 9.3 7.4 10.5 3.7 1 5.8-1.8 8.4-4.5 2.9 4.5 2.1 12.2-.3 17.1-3.3-4-6.9-.8-9.3-1.9 1.8 3.6-2.1 6.8 4.7 9.1-3.3 3.5 1 5.3-.1 9.3 2.4-3 7.2-.2 7.7-5.5 2.5 3.8 6.1.3 9.2.8-1.5-2.9 1.3-5.6-5-8 6.1-8.9 12.7-21 8.1-32-4 6.8-9.3 4-9-.7.2-2.5.9-7 1.4-10 4.1 3 8.8 1.9 9.4-4.6l.1-37.6c-15.5 6.1-10.2 20.5-7.8 24.3 1.7 2.9 4.2 6.8 4.3 10.5.1 6.7-5.1 6.1-5.3 2.2-.2-12.4-4.1-26.8-7-32.3l1.8-3c1.8.4 2.1-.1 4 1.5zM46.7 7.9c-.2-1.8 1-2.6 3.4-2.3-1 1.4-1.6 1.8-3.4 2.3z"/></svg>
